<svg xmlns="http://www.w3.org/2000/svg" viewBox="0 0 240 200" role="img" aria-label="No friends yet illustration">
  <defs>
    <linearGradient id="g1" x1="0" y1="0" x2="1" y2="1">
      <stop offset="0%" stop-color="#fce7f3"/>
      <stop offset="100%" stop-color="#ede9fe"/>
    </linearGradient>
  </defs>
  <rect width="240" height="200" rx="18" fill="url(#g1)"/>
  <!-- Phone illustration with avatars -->
  <g transform="translate(70,30)">
    <rect width="100" height="140" rx="14" fill="white" stroke="#ec4899" stroke-width="3"/>
    <rect x="10" y="14" width="80" height="20" rx="6" fill="#fce7f3"/>
    <circle cx="22" cy="56" r="10" fill="#ec4899"/>
    <rect x="36" y="50" width="58" height="6" rx="3" fill="#c7d2fe"/>
    <rect x="36" y="60" width="40" height="4" rx="2" fill="#e9d5ff"/>
    <circle cx="22" cy="84" r="10" fill="#7c3aed"/>
    <rect x="36" y="78" width="58" height="6" rx="3" fill="#c7d2fe"/>
    <rect x="36" y="88" width="40" height="4" rx="2" fill="#e9d5ff"/>
    <circle cx="22" cy="112" r="10" fill="#fb923c" opacity="0.5"/>
    <rect x="36" y="106" width="58" height="6" rx="3" fill="#fde68a" opacity="0.6"/>
    <rect x="36" y="116" width="40" height="4" rx="2" fill="#fef3c7"/>
  </g>
  <!-- Plus icon -->
  <g transform="translate(165,140)">
    <circle r="20" fill="#ec4899"/>
    <line x1="-9" y1="0" x2="9" y2="0" stroke="white" stroke-width="3" stroke-linecap="round"/>
    <line x1="0" y1="-9" x2="0" y2="9" stroke="white" stroke-width="3" stroke-linecap="round"/>
  </g>
</svg>
